# xmcd CD database file
#
# Track frame offsets:
#	150
#	20861
#	42073
#	56467
#	65362
#	87269
#	100834
#	120977
#	138186
#	154506
#	171153
#	184992
#	203301
#	220287
#
# Disc length: 3120 seconds
#
# Revision: 0
# Processed by: cddbd v1.5.2PL0 Copyright (c) Steve Scherf et al.
# Submitted via: CDex 1.70beta2
#
DISCID=b40c2e0e
DTITLE=Chillout Jazz Lounge - body asnd soul
DYEAR=2007
DGENRE=Jazz
TTITLE0=Cool Horizons - Laying There
TTITLE1=Pete Dunn - Girl From Ipanema
TTITLE2=Jean-Marc Levier - Never Loose Your Imagination
TTITLE3=Naomi Huntington - Custy Girl
TTITLE4=Pete Dunn - Body And Soul
TTITLE5=Jean-Marc Levier - When You Leave
TTITLE6=The Sunset Jazz Orchestra - Rooftop View
TTITLE7=Richard Wells - Sugar Pops
TTITLE8=Jean-Marc Levier - Move On And Dance
TTITLE9=Pete Dunn - Autumn Leaves
TTITLE10=Pete Dunn - No Name Shuffle
TTITLE11=The Bossanova Circuit - Westr End
TTITLE12=Johnny Rockwell - Gum Shoe
TTITLE13=Jean-Marc Levier - Evening Lounge
EXTD=YEAR: 2007
EXTT0=
EXTT1=
EXTT2=
EXTT3=
EXTT4=
EXTT5=
EXTT6=
EXTT7=
EXTT8=
EXTT9=
EXTT10=
EXTT11=
EXTT12=
EXTT13=
PLAYORDER=
